<?xml version="1.0" encoding="UTF-8" standalone="no"?>
<!-- Created with Inkscape (http://www.inkscape.org/) -->

<svg
   width="150.8125mm"
   height="161.39584mm"
   viewBox="0 0 150.8125 161.39584"
   version="1.1"
   id="svg1"
   inkscape:version="1.3.1 (91b66b0783, 2023-11-16)"
   sodipodi:docname="quasm.svg"
   inkscape:export-filename="quasm.png"
   inkscape:export-xdpi="96"
   inkscape:export-ydpi="96"
   xmlns:inkscape="http://www.inkscape.org/namespaces/inkscape"
   xmlns:sodipodi="http://sodipodi.sourceforge.net/DTD/sodipodi-0.dtd"
   xmlns="http://www.w3.org/2000/svg"
   xmlns:svg="http://www.w3.org/2000/svg">
  <sodipodi:namedview
     id="namedview1"
     pagecolor="#505050"
     bordercolor="#eeeeee"
     borderopacity="1"
     inkscape:showpageshadow="0"
     inkscape:pageopacity="0"
     inkscape:pagecheckerboard="true"
     inkscape:deskcolor="#505050"
     inkscape:document-units="mm"
     inkscape:zoom="1.081068"
     inkscape:cx="376.94205"
     inkscape:cy="539.74401"
     inkscape:window-width="1920"
     inkscape:window-height="1009"
     inkscape:window-x="-8"
     inkscape:window-y="-8"
     inkscape:window-maximized="1"
     inkscape:current-layer="layer1" />
  <defs
     id="defs1" />
  <g
     inkscape:label="Layer 1"
     inkscape:groupmode="layer"
     id="layer1"
     transform="translate(-37.041665,-66.145834)">
    <path
       id="path5"
       style="display:inline;fill:#ffffff;stroke-width:0.417935;stroke-dasharray:0.417935, 2.50762"
       d="m 66.145833,66.145833 c -7.328889,0 -13.229166,11.800545 -13.229166,26.458334 v 6.708634 l 0.09405,-0.09405 9.354468,9.354469 -9.354468,9.35447 -0.09405,-0.0941 v 41.01042 l 0.09405,-0.0941 9.354468,9.35447 -9.354468,9.35447 -0.09405,-0.0941 v 21.07262 h 46.302083 13.22917 6.61458 13.22917 c 0,14.61246 5.92291,26.45833 13.22916,26.45833 0.97753,-0.003 1.9519,-0.22248 2.90525,-0.65474 0.0331,-0.0148 0.0652,-0.0349 0.0982,-0.0501 0.9297,-0.43245 1.83326,-1.06486 2.69492,-1.88619 0.0259,-0.0247 0.0517,-0.0494 0.0775,-0.0744 2.66807,-2.59156 4.8233,-6.90128 6.11952,-12.23698 0.0131,-0.054 0.0259,-0.10808 0.0388,-0.16226 0.41095,-1.72425 0.72733,-3.53245 0.94361,-5.39295 0.007,-0.063 0.0167,-0.12395 0.0238,-0.18707 0.21633,-1.90768 0.32621,-3.85747 0.32763,-5.8136 v -47.43793 l -0.001,0.001 -9.35447,-9.35447 9.35447,-9.35446 0.001,0.001 V 92.604167 A 13.229167,26.458333 0 0 1 171.97917,66.145833 H 145.52083 132.29167 119.0625 112.44792 99.21875 Z" />
    <path
       id="path14"
       style="fill:#ffffff;stroke-width:0.375234;stroke-dasharray:0.375234, 2.25141"
       d="m 37.041667,201.08333 c 0,14.61248 5.922929,26.45834 13.229166,26.45834 H 95.25 99.21875 121.70833 142.875 c -7.30624,0 -13.22917,-11.84586 -13.22917,-26.45834 H 121.70833 99.21875 95.25 63.5 Z" />
    <path
       id="path6"
       style="fill:#ffffff;stroke-width:0.636035;stroke-dasharray:0.636035, 3.81621"
       d="M 161.39583,95.25 A 13.229167,26.458334 0 0 1 174.625,68.791666 13.229167,26.458334 0 0 1 187.85417,95.25" />
  </g>
</svg>
